<?xml version="1.0" encoding="UTF-8"?>
<svg id="Layer_1" xmlns="http://www.w3.org/2000/svg" version="1.1" viewBox="0 0 24 24">
  <!-- Generator: Adobe Illustrator 29.3.1, SVG Export Plug-In . SVG Version: 2.1.0 Build 151)  -->
  <defs>
    <style>
      .st0 {
        fill: #ea4335;
      }

      .st1 {
        fill: #fff;
      }

      .st2 {
        fill: #4285f4;
      }

      .st3 {
        fill: none;
      }

      .st4 {
        fill: #34a853;
      }

      .st5 {
        fill: #fbbc05;
      }
    </style>
  </defs>
  <circle class="st1" cx="12" cy="12" r="12"/>
  <g>
    <path class="st2" d="M21,12.2c0-.7,0-1.3-.2-1.9h-8.9v3.7h5.1c-.2,1.2-.9,2.2-1.9,2.8v2.4h3.1c1.8-1.6,2.8-4.1,2.8-7Z"/>
    <path class="st4" d="M12,21.5c2.6,0,4.7-.8,6.3-2.3l-3.1-2.4c-.8.6-1.9.9-3.2.9-2.5,0-4.5-1.7-5.3-3.9h-3.1v2.4c1.6,3.1,4.7,5.2,8.4,5.2Z"/>
    <path class="st5" d="M6.7,13.8c-.2-.6-.3-1.2-.3-1.8s.1-1.2.3-1.8v-2.4h-3.1c-.6,1.3-1,2.7-1,4.2s.4,3,1,4.2l2.4-1.9s.7-.5.7-.5Z"/>
    <path class="st0" d="M12,6.3c1.4,0,2.6.5,3.6,1.4l2.7-2.7c-1.6-1.5-3.8-2.5-6.3-2.5-3.7,0-6.9,2.1-8.4,5.2l3.1,2.4c.7-2.2,2.8-3.9,5.3-3.9Z"/>
  </g>
  <path class="st3" d="M1,1h22v22H1V1Z"/>
</svg>