<?xml version="1.0" encoding="UTF-8"?>
<svg id="Layer_1" xmlns="http://www.w3.org/2000/svg" version="1.1" viewBox="0 0 284.4 144.74">
  <!-- Generator: Adobe Illustrator 29.3.0, SVG Export Plug-In . SVG Version: 2.1.0 Build 146)  -->
  <defs>
    <style>
      .st0 {
        fill: #db2428;
      }
    </style>
  </defs>
  <path class="st0" d="M50.4,101.88c0-18.08,15.07-32.79,33.6-32.79s33.6,14.71,33.6,32.79M115.98,101.88c0,18.08-14.71,32.79-32.79,32.79s-32.79-14.71-32.79-32.79M83.19,93.69c-4.52,0-8.2,3.68-8.2,8.2s3.68,8.2,8.2,8.2,8.2-3.68,8.2-8.2-3.68-8.2-8.2-8.2Z"/>
  <rect class="st0" x="95.77" y="101.88" width="21.83" height="31.94"/>
  <g>
    <path class="st0" d="M153.83,127.82c-18.08,0-32.79-14.71-32.79-32.79s14.71-32.79,32.79-32.79,32.79,14.71,32.79,32.79-14.71,32.79-32.79,32.79ZM153.83,86.83c-4.52,0-8.2,3.68-8.2,8.2s3.68,8.2,8.2,8.2,8.2-3.68,8.2-8.2-3.68-8.2-8.2-8.2Z"/>
    <path class="st0" d="M223.74,144.74c-18.08,0-32.79-14.71-32.79-32.79s14.71-32.79,32.79-32.79,32.79,14.71,32.79,32.79-14.71,32.79-32.79,32.79ZM223.74,103.75c-4.52,0-8.2,3.68-8.2,8.2s3.68,8.2,8.2,8.2,8.2-3.68,8.2-8.2-3.68-8.2-8.2-8.2Z"/>
    <polygon class="st0" points="214.37 111.95 190.95 111.95 190.95 41.07 144.46 30.04 144.46 95.03 121.04 95.03 121.04 0 214.37 22.8 214.37 111.95"/>
  </g>
  <g>
    <rect class="st0" x="22.59" y="38.14" width="23.42" height="95.68"/>
    <rect class="st0" y="38.14" width="68.61" height="23.42"/>
  </g>
  <g>
    <rect class="st0" x="260.32" y="71.36" width="23.42" height="62.46"/>
    <path class="st0" d="M272.04,68.12c-.81,0-1.62-.08-2.42-.25-.8-.15-1.57-.4-2.31-.7-.76-.32-1.47-.69-2.14-1.14s-1.31-.96-1.88-1.54c-2.29-2.29-3.61-5.48-3.61-8.74s1.32-6.44,3.61-8.74c.58-.58,1.21-1.1,1.88-1.54.67-.45,1.39-.84,2.14-1.14.74-.32,1.51-.55,2.31-.7,1.59-.33,3.24-.33,4.84,0,.78.15,1.57.39,2.31.7.74.3,1.47.69,2.13,1.14.69.44,1.32.96,1.88,1.54,2.31,2.3,3.63,5.48,3.63,8.74s-1.32,6.44-3.63,8.74c-.56.58-1.2,1.09-1.88,1.54-.66.45-1.39.84-2.13,1.14-.74.3-1.52.55-2.31.7-.8.17-1.62.25-2.42.25Z"/>
  </g>
</svg>