<?xml version="1.0" encoding="UTF-8"?>
<svg id="Layer_1" xmlns="http://www.w3.org/2000/svg" version="1.1" viewBox="0 0 100 100">
  <!-- Generator: Adobe Illustrator 29.3.1, SVG Export Plug-In . SVG Version: 2.1.0 Build 151)  -->
  <defs>
    <style>
      .st0 {
        fill: #3864af;
      }

      .st1 {
        fill: #db2528;
      }

      .st2 {
        fill: #e8eaec;
      }
    </style>
  </defs>
  <circle class="st1" cx="50" cy="50" r="50"/>
  <path class="st2" d="M84,53.96c-.07-.72-.17-1.43-.3-2.14,0-.03-.01-.06-.02-.09-.29-1.52-.72-2.99-1.27-4.42,1.79-6.81,5.76-23.24,2.73-24.66-3.61-1.68-17.23,3.74-23.39,6.36h0c-.84-.26-1.69-.49-2.56-.7-.12-.03-.25-.06-.37-.09-.83-.19-1.67-.35-2.52-.48-.16-.03-.32-.05-.48-.07-.86-.13-1.72-.23-2.6-.3-.13-.01-.27-.02-.4-.03-.92-.06-1.85-.11-2.8-.11h0c-.94,0-1.87.04-2.8.11-.13,0-.27.02-.4.03-.88.07-1.74.17-2.6.3-.16.02-.32.05-.48.07-.85.14-1.69.3-2.52.48-.13.03-.25.06-.37.09-.87.21-1.72.43-2.56.7h0c-6.16-2.62-19.78-8.05-23.39-6.36-3.03,1.42.94,17.85,2.73,24.66-.55,1.43-.98,2.91-1.27,4.42,0,.03-.01.06-.02.09-.13.7-.23,1.42-.3,2.14-.01.13-.02.26-.03.39-.06.72-.1,1.44-.1,2.17,0,3.54.73,6.93,2.07,10.07,4.78,11.21,17.33,19.22,32.05,19.22h0c14.72,0,27.26-8,32.05-19.22,1.34-3.14,2.07-6.53,2.07-10.07,0-.73-.04-1.45-.1-2.17-.01-.13-.02-.26-.03-.39Z"/>
  <path class="st1" d="M50,59.02c-6.52,0-5.72,2.68-5.1,4.07.4.89,2.34,4.57,5.1,4.57s4.7-3.67,5.1-4.57c.62-1.39,1.43-4.07-5.1-4.07Z"/>
  <path class="st0" d="M70.64,58.06c-6.78,7.27-2.51,10.79,0,10.79s6.78-3.52,0-10.79Z"/>
  <g>
    <path class="st1" d="M28.96,56.09c-.6-1.53,7.23-2.16,10.38-5.36,1.7-1.73,2.81,2.47,1.11,3.4s-10.89,3.49-11.49,1.96Z"/>
    <path class="st1" d="M71.04,56.09c.6-1.53-7.23-2.16-10.38-5.36-1.7-1.73-2.81,2.47-1.11,3.4s10.89,3.49,11.49,1.96Z"/>
  </g>
  <path class="st1" d="M50,69.11s-2.05,4.12-4.9,5.31c0,0,2.94.37,4.9-2.66,1.97,3.03,4.9,2.66,4.9,2.66-2.86-1.2-4.9-5.31-4.9-5.31Z"/>
</svg>