<?xml version="1.0" encoding="UTF-8"?>
<svg id="Layer_1" xmlns="http://www.w3.org/2000/svg" version="1.1" viewBox="0 0 7.65 6.41">
  <!-- Generator: Adobe Illustrator 29.3.1, SVG Export Plug-In . SVG Version: 2.1.0 Build 151)  -->
  <defs>
    <style>
      .st0 {
        fill: #010101;
      }
    </style>
  </defs>
  <path class="st0" d="M5.5,5.24l-.56-.5s.41-.49.41-1.53-.39-1.51-.41-1.53l.56-.5c.06.07.6.7.6,2.03s-.54,1.96-.6,2.03Z"/>
  <path class="st0" d="M6.82,6.06l-.56-.5.28.25-.28-.25s.64-.75.64-2.35-.63-2.34-.64-2.35l.56-.5s.83.94.83,2.85-.79,2.81-.83,2.85Z"/>
  <polygon class="st0" points="4.24 0 2.05 1.86 0 1.86 0 4.69 2.25 4.69 4.24 6.41 4.24 0"/>
</svg>