<?xml version="1.0" encoding="UTF-8"?>
<svg id="Layer_1" xmlns="http://www.w3.org/2000/svg" version="1.1" viewBox="0 0 135.49 144.74">
  <!-- Generator: Adobe Illustrator 29.3.0, SVG Export Plug-In . SVG Version: 2.1.0 Build 146)  -->
  <defs>
    <style>
      .st0 {
        fill: #db2428;
      }
    </style>
  </defs>
  <path class="st0" d="M32.79,127.82C14.71,127.82,0,113.11,0,95.03s14.71-32.79,32.79-32.79,32.79,14.71,32.79,32.79-14.71,32.79-32.79,32.79ZM32.79,86.83c-4.52,0-8.2,3.68-8.2,8.2s3.68,8.2,8.2,8.2,8.2-3.68,8.2-8.2-3.68-8.2-8.2-8.2Z"/>
  <path class="st0" d="M102.7,144.74c-18.08,0-32.79-14.71-32.79-32.79s14.71-32.79,32.79-32.79,32.79,14.71,32.79,32.79-14.71,32.79-32.79,32.79ZM102.7,103.75c-4.52,0-8.2,3.68-8.2,8.2s3.68,8.2,8.2,8.2,8.2-3.68,8.2-8.2-3.68-8.2-8.2-8.2Z"/>
  <polygon class="st0" points="93.33 111.95 69.91 111.95 69.91 41.07 23.42 30.04 23.42 95.03 0 95.03 0 0 93.33 22.8 93.33 111.95"/>
</svg>